<svg width="12" height="13" viewBox="0 0 12 13" fill="none" xmlns="http://www.w3.org/2000/svg">
<path d="M11.8066 7.74805H0.935547V5.4707H11.8066V7.74805ZM6.40332 0.808594C6.8903 0.808594 7.26628 0.944661 7.53125 1.2168C7.79622 1.48893 7.92871 1.8291 7.92871 2.2373C7.92871 2.64551 7.79622 2.98568 7.53125 3.25781C7.26628 3.52279 6.8903 3.65527 6.40332 3.65527C5.9235 3.65527 5.55111 3.52279 5.28613 3.25781C5.02116 2.98568 4.88867 2.64551 4.88867 2.2373C4.88867 1.8291 5.02116 1.48893 5.28613 1.2168C5.55111 0.944661 5.9235 0.808594 6.40332 0.808594ZM4.88867 11.0137C4.88867 10.5983 5.02116 10.2546 5.28613 9.98242C5.55111 9.71029 5.9235 9.57422 6.40332 9.57422C6.8903 9.57422 7.26628 9.71029 7.53125 9.98242C7.79622 10.2546 7.92871 10.5983 7.92871 11.0137C7.92871 11.4219 7.79622 11.7585 7.53125 12.0234C7.26628 12.2884 6.8903 12.4209 6.40332 12.4209C5.9235 12.4209 5.55111 12.2884 5.28613 12.0234C5.02116 11.7585 4.88867 11.4219 4.88867 11.0137Z" fill="black"/>
</svg>
